<?xml version="1.0" standalone="no"?>
<!DOCTYPE svg PUBLIC "-//W3C//DTD SVG 20010904//EN"
 "http://www.w3.org/TR/2001/REC-SVG-20010904/DTD/svg10.dtd">
<svg version="1.0" xmlns="http://www.w3.org/2000/svg"
 width="128.000000pt" height="128.000000pt" viewBox="0 0 128.000000 128.000000"
 preserveAspectRatio="xMidYMid meet">
<metadata>
Created by potrace 1.15, written by Peter Selinger 2001-2017
</metadata>
<g transform="translate(0.000000,128.000000) scale(0.100000,-0.100000)"
fill="#000000" stroke="none">
<path d="M336 1191 c-22 -5 -48 -18 -58 -31 -20 -25 -38 -82 -38 -125 0 -29
-2 -30 -42 -30 l-43 0 0 -120 0 -120 28 -3 c16 -2 35 2 43 9 12 10 14 -5 14
-108 0 -80 4 -123 12 -131 10 -10 7 -16 -10 -28 -21 -14 -22 -22 -22 -157 1
-97 5 -155 15 -182 8 -22 15 -50 15 -62 0 -22 4 -23 65 -23 63 0 65 1 65 25
l0 25 260 0 260 0 0 -25 c0 -24 2 -25 65 -25 61 0 65 1 65 23 0 12 7 40 15 62
10 27 14 85 15 182 0 135 -1 143 -22 157 -17 12 -20 18 -10 28 8 8 12 51 12
131 0 103 2 118 14 108 8 -7 27 -11 43 -9 l28 3 0 120 0 120 -41 0 -42 0 -5
51 c-6 61 -29 109 -60 126 -26 15 -574 22 -641 9z m664 -161 c6 -12 9 -69 8
-142 l-3 -123 -365 0 -365 0 -3 123 c-1 73 2 130 8 142 10 19 21 20 360 20
339 0 350 -1 360 -20z"/>
</g>
</svg>
